<svg width="1630" height="146" viewBox="0 0 1920 260" fill="none" xmlns="http://www.w3.org/2000/svg">
<path d="M773.304 191.45C715.475 104.514 1018.66 51.3566 1063.33 89.5768C1108.05 128.941 1008.13 209.834 840.261 213C786.802 213 771 183.5 776.5 162.5" stroke="#FF3C00" stroke-width="3" stroke-linecap="round"/>
<path d="M156.176 184V137.982L121.463 84.915H133.3L163.624 131.066H159.368L189.559 84.915H201.396L166.816 137.982V184H156.176ZM255.726 185.596C248.81 185.596 242.337 184.355 236.308 181.872C230.367 179.301 225.136 175.754 220.614 171.232C216.092 166.621 212.545 161.213 209.974 155.006C207.403 148.711 206.117 141.839 206.117 134.391C206.117 126.943 207.403 120.116 209.974 113.909C212.545 107.614 216.092 102.205 220.614 97.683C225.136 93.0723 230.367 89.5257 236.308 87.043C242.337 84.5603 248.81 83.319 255.726 83.319C262.642 83.319 269.07 84.6047 275.011 87.176C281.04 89.6587 286.316 93.2053 290.838 97.816C295.36 102.338 298.907 107.702 301.478 113.909C304.049 120.116 305.335 126.943 305.335 134.391C305.335 141.839 304.049 148.711 301.478 155.006C298.907 161.213 295.36 166.621 290.838 171.232C286.316 175.754 281.04 179.301 275.011 181.872C269.07 184.355 262.642 185.596 255.726 185.596ZM255.726 175.621C261.489 175.621 266.721 174.557 271.42 172.429C276.208 170.301 280.331 167.331 283.789 163.518C287.247 159.705 289.907 155.316 291.769 150.351C293.72 145.386 294.695 140.066 294.695 134.391C294.695 128.805 293.72 123.529 291.769 118.564C289.907 113.599 287.247 109.21 283.789 105.397C280.331 101.584 276.208 98.614 271.42 96.486C266.721 94.358 261.489 93.294 255.726 93.294C249.963 93.294 244.687 94.358 239.899 96.486C235.2 98.614 231.121 101.584 227.663 105.397C224.205 109.21 221.501 113.599 219.55 118.564C217.688 123.529 216.757 128.805 216.757 134.391C216.757 140.066 217.688 145.386 219.55 150.351C221.501 155.316 224.205 159.705 227.663 163.518C231.121 167.331 235.244 170.301 240.032 172.429C244.82 174.557 250.051 175.621 255.726 175.621ZM359.154 185.596C352.149 185.596 345.987 184.133 340.667 181.207C335.347 178.281 331.224 174.291 328.298 169.237C325.372 164.094 323.909 158.242 323.909 151.681V84.915H334.549V151.681C334.549 156.469 335.568 160.681 337.608 164.316C339.736 167.863 342.617 170.656 346.253 172.695C349.977 174.646 354.277 175.621 359.154 175.621C364.03 175.621 368.286 174.646 371.922 172.695C375.646 170.656 378.527 167.863 380.567 164.316C382.695 160.681 383.759 156.469 383.759 151.681V84.915H394.399V151.681C394.399 158.242 392.936 164.094 390.01 169.237C387.084 174.291 382.961 178.281 377.641 181.207C372.409 184.133 366.247 185.596 359.154 185.596ZM437.033 184V84.915H447.673V129.47H500.873V84.915H511.513V184H500.873V139.445H447.673V184H437.033ZM523.224 184L559.4 84.915H570.838L607.014 184H595.842L587.33 159.794H543.041L534.396 184H523.224ZM546.499 149.819H583.606L563.523 92.895H566.715L546.499 149.819ZM636.872 184L600.563 84.915H611.602L643.522 174.557H641.394L673.181 84.915H684.353L648.044 184H636.872ZM696.065 184V84.915H759.905V94.89H706.705V129.337H757.245V139.312H706.705V174.025H759.905V184H696.065ZM813.194 185.596C809.293 185.596 805.613 184.887 802.155 183.468C798.697 182.049 795.86 179.921 793.643 177.084C791.515 174.158 790.451 170.523 790.451 166.178C790.451 162.188 791.427 158.597 793.377 155.405C795.417 152.213 798.298 149.553 802.022 147.425C805.746 145.297 810.224 143.834 815.455 143.036L844.05 138.381L843.119 147.425L817.317 151.681C812.263 152.568 808.273 154.252 805.347 156.735C802.51 159.129 801.091 162.099 801.091 165.646C801.091 168.927 802.288 171.587 804.682 173.626C807.165 175.577 810.446 176.552 814.524 176.552C818.958 176.552 823.036 175.488 826.76 173.36C830.484 171.232 833.588 168.395 836.07 164.848C838.553 161.213 840.06 157.223 840.592 152.878L842.853 136.253C843.385 132.706 842.942 129.78 841.523 127.475C840.105 125.17 838.11 123.485 835.538 122.421C833.056 121.268 830.351 120.692 827.425 120.692C822.903 120.692 818.869 121.845 815.322 124.15C811.864 126.367 809.116 129.204 807.076 132.662L798.431 127.209C800.116 124.194 802.421 121.49 805.347 119.096C808.362 116.613 811.82 114.663 815.721 113.244C819.623 111.825 823.746 111.116 828.09 111.116C833.233 111.116 837.799 112.224 841.789 114.441C845.779 116.569 848.794 119.539 850.833 123.352C852.961 127.165 853.671 131.598 852.961 136.652L846.311 184H836.203L838.198 169.769L839.927 171.498C838.331 174.247 836.159 176.685 833.41 178.813C830.662 180.941 827.558 182.626 824.1 183.867C820.642 185.02 817.007 185.596 813.194 185.596ZM886.558 184L900.656 83.319H910.764L896.666 184H886.558ZM952.283 185.596C945.899 185.596 940.091 184.133 934.86 181.207C929.717 178.192 925.594 174.025 922.491 168.705C919.476 163.385 917.969 157.267 917.969 150.351C917.969 144.942 918.944 139.888 920.895 135.189C922.845 130.401 925.55 126.234 929.008 122.687C932.554 119.052 936.633 116.214 941.244 114.175C945.943 112.136 950.953 111.116 956.273 111.116C962.834 111.116 968.686 112.623 973.829 115.638C979.06 118.564 983.183 122.643 986.198 127.874C989.212 133.105 990.72 139.135 990.72 145.962C990.72 151.371 989.7 156.469 987.661 161.257C985.71 166.045 982.961 170.301 979.415 174.025C975.868 177.66 971.789 180.498 967.179 182.537C962.568 184.576 957.603 185.596 952.283 185.596ZM952.15 175.621C957.381 175.621 962.08 174.247 966.248 171.498C970.504 168.749 973.873 165.114 976.356 160.592C978.838 156.07 980.08 151.149 980.08 145.829C980.08 141.041 979.06 136.785 977.021 133.061C974.981 129.337 972.144 126.411 968.509 124.283C964.962 122.155 960.928 121.091 956.406 121.091C951.263 121.091 946.564 122.465 942.308 125.214C938.14 127.874 934.815 131.421 932.333 135.854C929.85 140.287 928.609 145.208 928.609 150.617C928.609 155.405 929.628 159.705 931.668 163.518C933.707 167.242 936.5 170.212 940.047 172.429C943.593 174.557 947.628 175.621 952.15 175.621ZM1028.25 184.798C1021.77 184.798 1017.03 182.892 1014.02 179.079C1011 175.266 1009.94 169.902 1010.82 162.986L1016.41 122.687H1003.24L1004.71 112.712H1007.76C1010.78 112.712 1013.35 111.692 1015.48 109.653C1017.7 107.525 1018.98 104.954 1019.34 101.939L1020.13 96.22H1030.24L1027.98 112.712H1043.54L1042.08 122.687H1026.52L1020.8 163.518C1020.44 165.912 1020.44 168.04 1020.8 169.902C1021.24 171.675 1022.22 173.05 1023.72 174.025C1025.23 175 1027.4 175.488 1030.24 175.488C1031.13 175.488 1032.06 175.444 1033.03 175.355C1034.01 175.266 1034.85 175.178 1035.56 175.089L1034.76 184.266C1033.7 184.532 1032.5 184.665 1031.17 184.665C1029.93 184.754 1028.96 184.798 1028.25 184.798ZM1123.61 185.596C1116.6 185.596 1110.18 184.355 1104.32 181.872C1098.47 179.301 1093.37 175.754 1089.03 171.232C1084.77 166.621 1081.45 161.213 1079.05 155.006C1076.66 148.799 1075.46 141.972 1075.46 134.524C1075.46 127.076 1076.66 120.249 1079.05 114.042C1081.45 107.835 1084.77 102.427 1089.03 97.816C1093.37 93.2053 1098.47 89.6587 1104.32 87.176C1110.18 84.6047 1116.6 83.319 1123.61 83.319C1130.35 83.319 1136.38 84.516 1141.7 86.91C1147.11 89.304 1151.63 92.4073 1155.26 96.22C1158.99 99.944 1161.65 103.89 1163.24 108.057L1153.67 112.712C1151.18 106.683 1147.37 101.939 1142.23 98.481C1137.09 95.023 1130.88 93.294 1123.61 93.294C1116.34 93.294 1109.87 95.023 1104.19 98.481C1098.52 101.939 1094.08 106.771 1090.89 112.978C1087.7 119.096 1086.1 126.278 1086.1 134.524C1086.1 142.681 1087.7 149.863 1090.89 156.07C1094.08 162.277 1098.52 167.109 1104.19 170.567C1109.87 173.936 1116.34 175.621 1123.61 175.621C1130.08 175.621 1135.89 174.202 1141.03 171.365C1146.26 168.528 1150.39 164.671 1153.4 159.794C1156.42 154.829 1157.92 149.154 1157.92 142.77V137.317L1162.71 142.105H1123.61V132.795H1168.56V141.041C1168.56 147.514 1167.41 153.499 1165.11 158.996C1162.8 164.405 1159.61 169.104 1155.53 173.094C1151.45 177.084 1146.66 180.187 1141.17 182.404C1135.76 184.532 1129.9 185.596 1123.61 185.596ZM1232.8 185.596C1225.89 185.596 1219.42 184.355 1213.39 181.872C1207.45 179.301 1202.21 175.754 1197.69 171.232C1193.17 166.621 1189.62 161.213 1187.05 155.006C1184.48 148.711 1183.19 141.839 1183.19 134.391C1183.19 126.943 1184.48 120.116 1187.05 113.909C1189.62 107.614 1193.17 102.205 1197.69 97.683C1202.21 93.0723 1207.45 89.5257 1213.39 87.043C1219.42 84.5603 1225.89 83.319 1232.8 83.319C1239.72 83.319 1246.15 84.6047 1252.09 87.176C1258.12 89.6587 1263.39 93.2053 1267.92 97.816C1272.44 102.338 1275.98 107.702 1278.56 113.909C1281.13 120.116 1282.41 126.943 1282.41 134.391C1282.41 141.839 1281.13 148.711 1278.56 155.006C1275.98 161.213 1272.44 166.621 1267.92 171.232C1263.39 175.754 1258.12 179.301 1252.09 181.872C1246.15 184.355 1239.72 185.596 1232.8 185.596ZM1232.8 175.621C1238.57 175.621 1243.8 174.557 1248.5 172.429C1253.29 170.301 1257.41 167.331 1260.87 163.518C1264.32 159.705 1266.98 155.316 1268.85 150.351C1270.8 145.386 1271.77 140.066 1271.77 134.391C1271.77 128.805 1270.8 123.529 1268.85 118.564C1266.98 113.599 1264.32 109.21 1260.87 105.397C1257.41 101.584 1253.29 98.614 1248.5 96.486C1243.8 94.358 1238.57 93.294 1232.8 93.294C1227.04 93.294 1221.76 94.358 1216.98 96.486C1212.28 98.614 1208.2 101.584 1204.74 105.397C1201.28 109.21 1198.58 113.599 1196.63 118.564C1194.77 123.529 1193.83 128.805 1193.83 134.391C1193.83 140.066 1194.77 145.386 1196.63 150.351C1198.58 155.316 1201.28 159.705 1204.74 163.518C1208.2 167.331 1212.32 170.301 1217.11 172.429C1221.9 174.557 1227.13 175.621 1232.8 175.621ZM1301.39 184V84.915H1312.03V184H1301.39ZM1333.91 184V84.915H1343.22L1401.35 168.306H1397.75V84.915H1408.39V184H1399.08L1340.96 100.077H1344.55V184H1333.91ZM1475.57 185.596C1468.56 185.596 1462.13 184.355 1456.28 181.872C1450.43 179.301 1445.33 175.754 1440.99 171.232C1436.73 166.621 1433.41 161.213 1431.01 155.006C1428.62 148.799 1427.42 141.972 1427.42 134.524C1427.42 127.076 1428.62 120.249 1431.01 114.042C1433.41 107.835 1436.73 102.427 1440.99 97.816C1445.33 93.2053 1450.43 89.6587 1456.28 87.176C1462.13 84.6047 1468.56 83.319 1475.57 83.319C1482.31 83.319 1488.33 84.516 1493.65 86.91C1499.06 89.304 1503.59 92.4073 1507.22 96.22C1510.94 99.944 1513.6 103.89 1515.2 108.057L1505.62 112.712C1503.14 106.683 1499.33 101.939 1494.19 98.481C1489.04 95.023 1482.84 93.294 1475.57 93.294C1468.3 93.294 1461.82 95.023 1456.15 98.481C1450.47 101.939 1446.04 106.771 1442.85 112.978C1439.66 119.096 1438.06 126.278 1438.06 134.524C1438.06 142.681 1439.66 149.863 1442.85 156.07C1446.04 162.277 1450.47 167.109 1456.15 170.567C1461.82 173.936 1468.3 175.621 1475.57 175.621C1482.04 175.621 1487.85 174.202 1492.99 171.365C1498.22 168.528 1502.34 164.671 1505.36 159.794C1508.37 154.829 1509.88 149.154 1509.88 142.77V137.317L1514.67 142.105H1475.57V132.795H1520.52V141.041C1520.52 147.514 1519.37 153.499 1517.06 158.996C1514.76 164.405 1511.57 169.104 1507.49 173.094C1503.41 177.084 1498.62 180.187 1493.12 182.404C1487.71 184.532 1481.86 185.596 1475.57 185.596ZM1605.86 185.596C1598.94 185.596 1592.47 184.355 1586.44 181.872C1580.5 179.301 1575.27 175.754 1570.75 171.232C1566.23 166.621 1562.68 161.213 1560.11 155.006C1557.54 148.711 1556.25 141.839 1556.25 134.391C1556.25 126.943 1557.54 120.116 1560.11 113.909C1562.68 107.614 1566.23 102.205 1570.75 97.683C1575.27 93.0723 1580.5 89.5257 1586.44 87.043C1592.47 84.5603 1598.94 83.319 1605.86 83.319C1612.78 83.319 1619.2 84.6047 1625.15 87.176C1631.17 89.6587 1636.45 93.2053 1640.97 97.816C1645.49 102.338 1649.04 107.702 1651.61 113.909C1654.18 120.116 1655.47 126.943 1655.47 134.391C1655.47 141.839 1654.18 148.711 1651.61 155.006C1649.04 161.213 1645.49 166.621 1640.97 171.232C1636.45 175.754 1631.17 179.301 1625.15 181.872C1619.2 184.355 1612.78 185.596 1605.86 185.596ZM1605.86 175.621C1611.62 175.621 1616.86 174.557 1621.55 172.429C1626.34 170.301 1630.47 167.331 1633.92 163.518C1637.38 159.705 1640.04 155.316 1641.9 150.351C1643.85 145.386 1644.83 140.066 1644.83 134.391C1644.83 128.805 1643.85 123.529 1641.9 118.564C1640.04 113.599 1637.38 109.21 1633.92 105.397C1630.47 101.584 1626.34 98.614 1621.55 96.486C1616.86 94.358 1611.62 93.294 1605.86 93.294C1600.1 93.294 1594.82 94.358 1590.03 96.486C1585.33 98.614 1581.26 101.584 1577.8 105.397C1574.34 109.21 1571.64 113.599 1569.68 118.564C1567.82 123.529 1566.89 128.805 1566.89 134.391C1566.89 140.066 1567.82 145.386 1569.68 150.351C1571.64 155.316 1574.34 159.705 1577.8 163.518C1581.26 167.331 1585.38 170.301 1590.17 172.429C1594.95 174.557 1600.19 175.621 1605.86 175.621ZM1674.44 184V84.915H1683.75L1741.87 168.306H1738.28V84.915H1748.92V184H1739.61L1681.49 100.077H1685.08V184H1674.44ZM1772.87 184V169.37H1783.51V184H1772.87Z" fill="#1D201F"/>
<path d="M120 1H1800" stroke="#1D201F"/>
<path d="M120 259H1800" stroke="#1D201F"/>
</svg>
